# xmcd CD database file
#
# Track frame offsets:
#	150
#	15754
#	30094
#	43341
#	56962
#	74433
#	94239
#	107617
#	126469
#	135367
#	149641
#	164130
#	177959
#
# Disc length: 2934 seconds
#
# Revision: 0
# Processed by: cddbd v1.5.1PL0 Copyright (c) Steve Scherf et al.
# Submitted via: CDex 1.51
#
DISCID=bb0b740d
DTITLE=Swing Rosie - Sing Cool Swing Hot
DYEAR=2005
DGENRE=Jazz
TTITLE0=Swing Rosie
TTITLE1=Bei Mir Bist Du Shoen
TTITLE2=Put That Ring On My Finger
TTITLE3=Just A Simple Melody
TTITLE4=No Moon At All
TTITLE5=Suzie Kazoo
TTITLE6=Begin The Beguine
TTITLE7=Makin' Whoopee
TTITLE8=Apple Blossom Time
TTITLE9=I've Got A Guy In Kalamazoo
TTITLE10=Cape Cod
TTITLE11=Eight To The Bar
TTITLE12=St. Louis Blues
EXTD=YEAR: 2005
EXTT0=
EXTT1=
EXTT2=
EXTT3=
EXTT4=
EXTT5=
EXTT6=
EXTT7=
EXTT8=
EXTT9=
EXTT10=
EXTT11=
EXTT12=
PLAYORDER=
